<svg version="1.0" xmlns="http://www.w3.org/2000/svg" width="138px" height="111px" viewBox="0 0 1380 1110" preserveAspectRatio="xMidYMid meet">
    <g id="layer101" fill="#249fe6" stroke="none">
        <path d="M0 555 l0 -555 690 0 690 0 0 555 0 555 -690 0 -690 0 0 -555z"/>
    </g>
    <g id="layer102" fill="#c3e4f8" stroke="none">
        <path d="M337 283 c-4 -3 -7 -35 -7 -70 l0 -63 395 0 395 0 0 70 0 70 -388 0 c-214 0 -392 -3 -395 -7z m441 -42 c23 -14 10 -46 -18 -46 -16 0 -26 6 -28 19 -3 16 12 36 28 36 3 0 11 -4 18 -9z m137 -21 c0 -18 -6 -26 -23 -28 -27 -4 -40 22 -22 44 19 22 45 13 45 -16z m130 0 c0 -18 -6 -26 -23 -28 -27 -4 -40 22 -22 44 19 22 45 13 45 -16z"/>
        <path d="M588 723 l-3 -38 -192 -3 -193 -2 0 -35 0 -35 193 -2 192 -3 3 -37 c2 -21 6 -38 10 -38 4 0 32 25 61 54 49 49 53 57 41 73 -25 33 -94 103 -101 103 -5 0 -9 -17 -11 -37z"/>
    </g>
    <g id="layer103" fill="#ffffff" stroke="none">
        <path d="M0 555 l0 -555 690 0 690 0 0 555 0 555 -690 0 -690 0 0 -555z m1174 439 c14 -14 16 -68 16 -447 0 -238 -4 -438 -8 -445 -7 -10 -105 -12 -458 -10 l-449 3 -3 193 -2 192 30 0 30 0 0 -65 0 -65 395 0 395 0 0 295 0 295 -395 0 -395 0 0 -65 0 -65 -30 0 -30 0 0 88 c0 55 4 92 12 100 9 9 121 12 444 12 380 0 434 -2 448 -16z m-486 -228 c58 -58 102 -111 102 -122 0 -11 -44 -63 -104 -123 -82 -82 -108 -102 -127 -99 -22 3 -24 8 -27 65 l-3 63 -192 2 -192 3 0 90 0 90 193 3 192 2 0 59 c0 32 3 61 7 64 22 22 56 1 151 -97z"/>
    </g>


</svg>