<svg version="1.0" xmlns="http://www.w3.org/2000/svg" width="120px" height="114px" viewBox="0 0 1200 1140" preserveAspectRatio="xMidYMid meet">
    <g id="layer101" fill="#2ac940" stroke="none">
        <path d="M0 570 l0 -570 600 0 600 0 0 570 0 570 -600 0 -600 0 0 -570z"/>
    </g>
    <g id="layer102" fill="#9dfaaa" stroke="none">
        <path d="M170 255 l0 -65 380 0 380 0 0 65 0 65 -380 0 -380 0 0 -65z m115 5 c0 -18 -6 -26 -22 -28 -18 -3 -23 1 -23 21 0 28 9 39 30 35 9 -2 15 -14 15 -28z m123 21 c21 -13 10 -46 -16 -49 -27 -4 -40 22 -22 43 14 17 20 18 38 6z m131 -5 c15 -18 3 -46 -20 -46 -22 0 -34 22 -25 45 7 19 30 19 45 1z"/>
        <path d="M928 749 l-3 -34 -222 -3 -223 -2 0 -35 0 -35 223 -2 222 -3 5 -38 5 -38 55 56 55 55 -57 57 -56 56 -4 -34z"/>
    </g>
    <g id="layer103" fill="#fdfffe" stroke="none">
        <path d="M0 570 l0 -570 600 0 600 0 0 570 0 570 -600 0 -600 0 0 -570z m988 388 l3 -58 -31 0 c-27 0 -30 3 -30 30 l0 30 -380 0 -380 0 0 -285 0 -285 380 0 380 0 0 30 c0 27 3 30 30 30 l31 0 -3 -157 -3 -158 -429 -3 c-308 -1 -433 1 -442 9 -19 16 -21 848 -2 867 9 9 116 12 443 10 l430 -3 3 -57z m29 -170 c57 -57 103 -110 103 -118 0 -8 -47 -62 -104 -119 -124 -124 -139 -127 -144 -34 l-3 63 -222 2 -222 3 -3 78 c-2 50 1 84 9 93 9 11 54 14 225 14 l214 0 0 53 c0 97 20 92 147 -35z"/>
    </g>
</svg>